<?xml version="1.0" encoding="iso-8859-1"?>
<!-- Uploaded to: SVG Repo, www.svgrepo.com, Generator: SVG Repo Mixer Tools -->
<svg fill="rgb(103, 0, 230)" height="800px" width="800px" version="1.1" id="Layer_1" xmlns="http://www.w3.org/2000/svg" xmlns:xlink="http://www.w3.org/1999/xlink" 
	 viewBox="0 0 512 512" xml:space="preserve">
<g>
	<g>
		<path d="M506.56,64.483c8.464-24.741,6.953-43.085-4.487-54.528c-19.625-19.624-54.304-5.007-65.7-0.204
			c-22.804,9.611-50.523,26.083-82.448,48.98c-30.174-14.515-63.463-22.188-97.937-22.188c-60.411,0-117.206,23.526-159.923,66.243
			C26.013,172.84,11.62,277.79,52.868,362.192C2.264,434.597-11.795,480.422,9.905,502.122C16.488,508.705,25.354,512,36.41,512
			c8.161,0,17.515-1.795,28.021-5.391c18.909-6.469,42.26-18.785,69.406-36.609c4.358-2.861,8.79-5.857,13.277-8.955
			c32.978,18.164,70.181,27.83,108.874,27.83c60.411,0,117.206-23.526,159.923-66.243c72.204-72.203,85.272-181.476,39.235-267.116
			c5.235-7.367,10.18-14.588,14.804-21.629C487.774,106.743,500.092,83.391,506.56,64.483z M33.597,478.348
			c-1.791-5.718,2.347-30.651,38.112-84.511c7.195,10.099,15.302,19.743,24.355,28.796c6.636,6.636,13.614,12.808,20.891,18.502
			C56.583,481.056,36.717,479.058,33.597,478.348z M145.834,420.964c-9.252-6.469-18.006-13.792-26.156-21.942
			c-75.163-75.163-75.163-197.461-0.001-272.624c36.41-36.409,84.821-56.462,136.312-56.462s99.902,20.052,136.312,56.462
			c8.562,8.562,16.136,17.74,22.748,27.385c-32.738,43.601-75.113,91.844-122.292,139.023
			C242.71,342.853,191.463,387.499,145.834,420.964z M392.301,399.023c-36.41,36.409-84.82,56.462-136.312,56.462
			c-27.459,0-54.041-5.706-78.395-16.55c43.801-33.225,91.69-75.432,138.774-122.517C360.586,272.2,400.5,227.275,432.715,185.69
			C463.349,256.21,449.879,341.446,392.301,399.023z M437.761,121.99c-0.72,1.067-1.459,2.146-2.194,3.221
			c-5.978-7.796-12.523-15.293-19.654-22.424c-9.452-9.452-19.595-17.959-30.312-25.486c22.393-15.362,42.589-27.254,59.125-34.756
			c22.536-10.226,31.464-9.321,33.588-8.838C479.054,37.105,480.864,58.099,437.761,121.99z"/>
	</g>
</g>
</svg>